<svg width="720" height="137" viewBox="0 0 720 137" fill="none" xmlns="http://www.w3.org/2000/svg">
<path d="M75.5 44.5312C62.2838 44.5312 51.5312 55.2838 51.5312 68.5C51.5312 81.7162 62.2838 92.4688 75.5 92.4688C88.7162 92.4688 99.4688 81.7162 99.4688 68.5C99.4688 55.2838 88.7162 44.5312 75.5 44.5312ZM91.9785 79.5625H86.7676C86.6062 79.5621 86.4476 79.5194 86.3079 79.4385C86.1681 79.3576 86.0521 79.2414 85.9713 79.1016L84.1115 75.9119C83.989 75.7033 83.9534 75.455 84.0124 75.2205L85.7247 68.3156C85.7591 68.1765 85.8254 68.0473 85.9184 67.9383C86.0115 67.8293 86.1286 67.7434 86.2606 67.6876L89.4987 66.3163C89.6569 66.2492 89.8307 66.2277 90.0006 66.2542C90.1704 66.2806 90.3294 66.354 90.4597 66.4661L95.2569 70.5938C95.3752 70.6956 95.4657 70.8258 95.5199 70.9721C95.5741 71.1184 95.5903 71.2761 95.5669 71.4304C95.1696 74.1561 94.2174 76.7713 92.769 79.1142C92.6872 79.2509 92.5714 79.364 92.4328 79.4425C92.2943 79.5211 92.1378 79.5624 91.9785 79.5625ZM61.5013 66.3255L64.7394 67.6968C64.8714 67.7526 64.9885 67.8385 65.0816 67.9475C65.1746 68.0565 65.2409 68.1857 65.2753 68.3248L66.9876 75.2297C67.0466 75.4642 67.011 75.7125 66.8885 75.9211L65.0287 79.1016C64.9479 79.2414 64.8319 79.3576 64.6921 79.4385C64.5524 79.5194 64.3939 79.5621 64.2324 79.5625H59.0215C58.8639 79.5626 58.7089 79.5223 58.5713 79.4454C58.4337 79.3686 58.3181 79.2577 58.2356 79.1235C56.7873 76.7805 55.835 74.1653 55.4377 71.4396C55.4143 71.2853 55.4305 71.1277 55.4847 70.9813C55.539 70.835 55.6294 70.7048 55.7477 70.603L60.5449 66.4753C60.6747 66.3641 60.833 66.2912 61.0019 66.2648C61.1708 66.2383 61.3437 66.2594 61.5013 66.3255ZM91.1096 56.2725L89.0274 62.1932C88.9855 62.3142 88.9189 62.4252 88.8318 62.519C88.7447 62.6129 88.639 62.6875 88.5215 62.7383L85.1129 64.1822C84.9564 64.2483 84.7848 64.27 84.6168 64.2448C84.4488 64.2196 84.2911 64.1485 84.161 64.0393L77.6779 58.6014C77.5743 58.5157 77.4907 58.4083 77.433 58.2869C77.3753 58.1655 77.3448 58.0329 77.3438 57.8984V54.0289C77.3438 53.8773 77.3813 53.728 77.4529 53.5943C77.5244 53.4607 77.6279 53.3467 77.754 53.2626L82.6895 49.9738C82.8183 49.8878 82.9667 49.8357 83.1209 49.8222C83.2752 49.8087 83.4304 49.8343 83.5722 49.8966C86.4121 51.1352 88.9323 53.0048 90.9414 55.3633C91.047 55.4866 91.1182 55.6356 91.1478 55.7953C91.1773 55.9549 91.1642 56.1195 91.1096 56.2725ZM68.3094 49.9738L73.246 53.2626C73.3721 53.3467 73.4756 53.4607 73.5471 53.5943C73.6187 53.728 73.6562 53.8773 73.6562 54.0289V57.8984C73.6562 58.0331 73.6267 58.1661 73.5698 58.2882C73.5129 58.4102 73.4299 58.5183 73.3267 58.6048L66.8436 64.0427C66.7135 64.1519 66.5558 64.223 66.3878 64.2483C66.2198 64.2735 66.0482 64.2518 65.8918 64.1856L62.4785 62.7383C62.3602 62.6882 62.2537 62.6139 62.1658 62.5203C62.0779 62.4266 62.0105 62.3156 61.968 62.1944L59.8857 56.2736C59.8316 56.1201 59.8191 55.9551 59.8495 55.7952C59.8798 55.6353 59.952 55.4863 60.0586 55.3633C62.0689 53.0024 64.5912 51.1311 67.4336 49.892C67.5748 49.8315 67.7289 49.8074 67.8819 49.8217C68.0348 49.836 68.1818 49.8882 68.3094 49.9738ZM70.3041 87.7084L68.0305 81.9824C67.9785 81.8523 67.9569 81.712 67.9673 81.5722C67.9777 81.4324 68.0198 81.2968 68.0904 81.1758L69.8385 78.1797C69.9193 78.0399 70.0353 77.9237 70.1751 77.8428C70.3148 77.7619 70.4733 77.7191 70.6348 77.7188H80.3652C80.5267 77.7191 80.6852 77.7619 80.8249 77.8428C80.9647 77.9237 81.0807 78.0399 81.1615 78.1797L82.9107 81.1758C82.9816 81.2967 83.0239 81.4323 83.0345 81.572C83.045 81.7118 83.0236 81.8522 82.9718 81.9824L80.7144 87.7061C80.6591 87.8461 80.5705 87.9704 80.4562 88.0682C80.342 88.166 80.2055 88.2344 80.0587 88.2673C77.0631 88.9548 73.9507 88.9548 70.9552 88.2673C70.8095 88.2339 70.6741 88.1656 70.5606 88.0682C70.4472 87.9709 70.3592 87.8474 70.3041 87.7084Z" fill="black"/>
<path d="M46.552 33.624C41.272 28.96 34.496 27.112 27.456 27.112C15.224 27.112 3.696 34.064 3.696 47.352C3.696 68.12 32.912 61.96 32.912 73.4C32.912 77.8 27.896 79.912 23.408 79.912C18.832 79.912 14.256 77.712 11.44 74.016L1.672 84.752C7.568 90.208 14.608 92.584 22.616 92.584C35.464 92.584 46.64 85.984 46.64 72.08C46.64 50.256 17.952 57.56 17.952 46.208C17.952 41.544 23.32 39.784 27.192 39.784C30.536 39.784 34.936 41.104 37.136 43.92L46.552 33.624ZM144.937 52.896C140.801 48.672 134.729 47.176 129.713 47.176C116.513 47.176 105.953 55.976 105.953 69.616C105.953 83.256 116.513 92.056 129.713 92.056C134.729 92.056 140.801 90.56 144.937 86.336L136.225 77.184C134.729 78.944 132.617 80.44 129.713 80.44C123.113 80.44 119.153 76.04 119.153 69.616C119.153 63.192 123.113 58.792 129.713 58.792C132.441 58.792 134.905 60.2 136.225 62.048L144.937 52.896ZM187.391 52.896C183.255 48.672 177.183 47.176 172.167 47.176C158.967 47.176 148.407 55.976 148.407 69.616C148.407 83.256 158.967 92.056 172.167 92.056C177.183 92.056 183.255 90.56 187.391 86.336L178.679 77.184C177.183 78.944 175.071 80.44 172.167 80.44C165.567 80.44 161.607 76.04 161.607 69.616C161.607 63.192 165.567 58.792 172.167 58.792C174.895 58.792 177.359 60.2 178.679 62.048L187.391 52.896ZM223.42 76.832C221.22 79.824 218.316 82.024 214.004 82.024C208.9 82.024 205.116 78.768 204.06 73.752H234.684V69.616C234.684 55.976 226.94 47.176 214.62 47.176C201.42 47.176 190.86 55.976 190.86 69.616C190.86 83.256 201.42 92.056 214.62 92.056C221.484 92.056 228.436 88.976 232.66 83.608L223.42 76.832ZM204.06 64.776C204.412 60.64 207.58 56.68 213.388 56.68C218.14 56.68 221.572 60.376 221.484 64.776H204.06ZM242.711 91H255.911V73.136C255.911 64.6 257.143 58.792 267.175 58.792C269.111 58.792 270.959 59.144 272.807 59.672V47.616C271.575 47.264 269.903 47.176 268.407 47.176C262.599 47.176 258.903 49.904 256.087 55.096H255.911V48.232H242.711V91Z" fill="#06895B"/>
<path d="M280.219 91H302.659C321.227 91 337.683 80.176 337.683 60.024C337.683 37.232 320.875 28.696 300.811 28.696H280.219V91ZM293.947 41.368H302.043C313.659 41.368 323.427 47.088 323.427 59.32C323.427 73.488 313.835 78.328 301.075 78.328H293.947V41.368ZM372.16 91H384.304V69.264C384.304 55.008 380.168 47.176 364.768 47.176C357.816 47.176 350.776 49.464 345.936 54.04L352.976 61.256C355.792 58.088 359.4 56.152 363.712 56.152C368.288 56.152 372.16 59.144 372.16 63.808C361.16 63.808 343.208 64.072 343.208 78.856C343.208 87.48 350.424 92.056 358.432 92.056C363.8 92.056 369.08 90.208 371.984 85.632H372.16V91ZM372.16 72.256V75.072C372.16 80.352 367.32 83.08 362.128 83.08C359.224 83.08 355.88 81.584 355.88 78.416C355.88 72.608 364.856 72.256 368.904 72.256H372.16ZM421.714 48.232H410.098V35.56H396.898V48.232H388.45V58.792H396.898V79.12C396.898 88.448 403.674 92.056 412.474 92.056C415.554 92.056 418.81 91.792 421.714 90.736V79.736C420.57 80.792 417.754 80.968 416.346 80.968C410.626 80.968 410.098 77.624 410.098 73.048V58.792H421.714V48.232ZM459.662 76.832C457.462 79.824 454.558 82.024 450.246 82.024C445.142 82.024 441.358 78.768 440.302 73.752H470.926V69.616C470.926 55.976 463.182 47.176 450.862 47.176C437.662 47.176 427.102 55.976 427.102 69.616C427.102 83.256 437.662 92.056 450.862 92.056C457.726 92.056 464.678 88.976 468.902 83.608L459.662 76.832ZM440.302 64.776C440.654 60.64 443.822 56.68 449.63 56.68C454.382 56.68 457.814 60.376 457.726 64.776H440.302Z" fill="#263238"/>
</svg>
